<svg width="23" height="23" viewBox="0 0 23 23" fill="none" xmlns="http://www.w3.org/2000/svg">
<path d="M20.6369 8.41964C20.5793 8.24983 20.4731 8.10061 20.3317 7.99043C20.1902 7.88024 20.0195 7.81389 19.8408 7.79959L14.6116 7.38408L12.3488 2.37506C12.2767 2.21373 12.1595 2.07671 12.0113 1.98052C11.8631 1.88434 11.6902 1.8331 11.5135 1.83301C11.3368 1.83291 11.1638 1.88395 11.0155 1.97998C10.8672 2.076 10.7498 2.2129 10.6776 2.37415L8.41477 7.38408L3.18562 7.79959C3.00993 7.8135 2.84196 7.87774 2.70183 7.98462C2.56169 8.0915 2.45531 8.23648 2.39541 8.40224C2.33552 8.56799 2.32464 8.74749 2.36409 8.91926C2.40354 9.09103 2.49164 9.2478 2.61785 9.37081L6.48216 13.1379L5.11548 19.0559C5.07398 19.235 5.08728 19.4225 5.15365 19.594C5.22003 19.7655 5.33641 19.913 5.48769 20.0175C5.63898 20.1221 5.81819 20.1787 6.00206 20.1801C6.18594 20.1815 6.36598 20.1276 6.51885 20.0254L11.5132 16.6958L16.5075 20.0254C16.6638 20.1291 16.848 20.1825 17.0355 20.1784C17.223 20.1743 17.4047 20.1129 17.5563 20.0024C17.7078 19.8919 17.8219 19.7377 17.8832 19.5604C17.9444 19.3832 17.9499 19.1914 17.899 19.0109L16.2213 13.1406L20.3819 9.39649C20.6543 9.15067 20.7543 8.76727 20.6369 8.41964Z" fill="#F3CD03"/>
</svg>
