<svg width="19" height="20" viewBox="0 0 19 20" fill="none" xmlns="http://www.w3.org/2000/svg">
<path d="M18.6369 7.41964C18.5793 7.24983 18.4731 7.10061 18.3317 6.99043C18.1902 6.88024 18.0195 6.81389 17.8408 6.79959L12.6116 6.38408L10.3488 1.37506C10.2767 1.21373 10.1595 1.07671 10.0113 0.980522C9.86307 0.884337 9.69018 0.833105 9.51348 0.833008C9.33679 0.832911 9.16384 0.883954 9.01552 0.979976C8.86719 1.076 8.74983 1.2129 8.67759 1.37415L6.41477 6.38408L1.18562 6.79959C1.00993 6.8135 0.841964 6.87774 0.701826 6.98462C0.561689 7.0915 0.455309 7.23648 0.395414 7.40224C0.335518 7.56799 0.324644 7.74749 0.364092 7.91926C0.403539 8.09103 0.491638 8.2478 0.617849 8.37081L4.48216 12.1379L3.11548 18.0559C3.07398 18.235 3.08728 18.4225 3.15365 18.594C3.22003 18.7655 3.33641 18.913 3.48769 19.0175C3.63898 19.1221 3.81819 19.1787 4.00206 19.1801C4.18594 19.1815 4.36598 19.1276 4.51885 19.0254L9.51319 15.6958L14.5075 19.0254C14.6638 19.1291 14.848 19.1825 15.0355 19.1784C15.223 19.1743 15.4047 19.1129 15.5563 19.0024C15.7078 18.8919 15.8219 18.7377 15.8832 18.5604C15.9444 18.3832 15.9499 18.1914 15.899 18.0109L14.2213 12.1406L18.3819 8.39649C18.6543 8.15067 18.7543 7.76727 18.6369 7.41964V7.41964Z" fill="#F3CD03"/>
</svg>
